<svg width="20" height="20" fill="#FEA4A4" xmlns="http://www.w3.org/2000/svg">

 <g>
  <title>background</title>
  <rect fill="none" id="canvas_background" height="402" width="582" y="-1" x="-1"/>
 </g>
 <g>
  <title>Layer 1</title>
  <rect id="svg_1" width="20" height="20" fill="none"/>
  <path id="svg_2" d="m14.25,8.25c0,-2.35 -1.9,-4.25 -4.25,-4.25s-4.25,1.9 -4.25,4.25c0,2.09 1.51,3.82 3.5,4.17l0,1.58l-1.5,0l0,1.5l1.5,0l0,1.5l1.5,0l0,-1.5l1.5,0l0,-1.5l-1.5,0l0,-1.58c1.99,-0.35 3.5,-2.08 3.5,-4.17zm-7,0c0,-1.52 1.23,-2.75 2.75,-2.75s2.75,1.23 2.75,2.75s-1.23,2.75 -2.75,2.75s-2.75,-1.23 -2.75,-2.75z"/>
  <ellipse stroke="#FEA4A4" ry="1" rx="1" id="svg_5" cy="8.223464" cx="10.037244" stroke-width="2.5" fill="#FEA4A4"/>
 </g>
</svg>